<svg width="107" height="153" viewBox="0 0 107 153" fill="none" xmlns="http://www.w3.org/2000/svg">
<path d="M105.454 118.598C102.754 119.892 100.42 122.359 97.5538 124.665C97.6928 123.011 97.7658 121.29 97.7818 119.505C97.9528 100.315 82.0368 90.553 65.3988 80.268C50.8588 71.28 49.9068 64.262 46.3878 57.965C46.0038 57.279 45.2098 56.473 44.1378 55.641C48.3258 50.761 52.5348 40.695 58.3858 30.775C64.4428 20.506 72.9598 11.141 70.2058 10.178C67.4268 9.20703 55.7908 14.289 50.7608 20.81C46.9578 25.741 44.0198 33.096 41.3668 40.61C42.3768 35.415 43.3528 29.35 44.8188 23.171C47.5708 11.571 52.9408 0.107024 50.0248 0.00102444C47.0828 -0.105976 37.4678 8.18804 34.5898 15.904C31.2588 24.833 31.5388 38.586 31.0488 50.023C29.6628 49.773 28.2668 49.621 26.8958 49.621C19.3338 49.621 14.0288 55.413 9.5088 60.493C6.5108 63.862 3.1338 66.269 2.0908 69.833C1.9468 69.863 1.81679 69.88 1.66279 69.92C-1.47421 70.738 0.352812 76.456 2.82481 75.65C3.86581 77.398 5.6528 78.826 8.1328 78.91C14.1578 84.222 20.6698 83.917 23.6828 84.46C23.6828 84.46 23.0858 94.282 24.4138 102.96C22.5628 104.411 20.0458 105.354 15.9768 105.455C6.11379 105.699 6.96681 112.882 8.54881 114.952C10.1318 117.022 14.7588 111.786 20.3598 112.151C22.5458 112.294 25.2158 113.105 27.8908 113.557C27.8678 113.596 27.8458 113.636 27.8238 113.675C27.3878 113.714 26.9288 113.744 26.4298 113.756C17.7548 113.97 18.5048 120.289 19.8968 122.11C20.7978 123.288 22.8228 121.779 25.4708 120.652C24.9858 124.548 25.7448 128.872 28.3158 133.515C32.1718 140.477 43.9528 143.689 43.9528 143.689C43.9528 143.689 42.2388 145.724 38.4908 144.867C34.7418 144.01 15.8848 139.556 15.8848 147.454C15.8848 151.11 28.7068 149.562 43.9728 149.382C43.9598 149.538 43.9448 149.692 43.9448 149.86C43.9448 153.727 58.2838 151.771 74.6898 151.771C78.1998 151.771 88.8368 152.979 88.2968 148.305C88.1638 147.154 87.8878 146.015 87.5478 144.951C91.1208 142.579 93.5608 139.395 95.1588 135.513C96.3688 135.905 97.8788 135.848 99.7488 134.887C104.385 132.502 108.429 117.171 105.454 118.598Z" fill="#FFFFE1"/>
<circle cx="18" cy="64" r="3" fill="#222222"/>
<circle cx="17.5" cy="63.5" r="0.5" fill="white"/>
</svg>
