<svg width="106" height="159" viewBox="0 0 106 159" fill="none" xmlns="http://www.w3.org/2000/svg">
<path d="M103.303 67.2321C102.747 65.6071 101.612 63.9751 99.352 61.6251C95.376 57.4911 88.245 48.6611 79.636 48.6611C75.035 48.6611 71.246 49.5211 68.062 50.9661C67.654 39.2841 67.766 25.6881 64.608 16.7181C61.752 8.6071 52.21 -0.111913 49.291 0.00108681C46.784 0.0970868 50.448 9.1571 53.249 19.5071C48.014 12.9911 37.167 8.03411 34.503 9.02111C31.77 10.0331 40.222 19.8781 46.233 30.6731C51.991 41.0141 56.147 51.5001 60.269 56.6761C54.431 62.9761 51.584 71.6491 47.938 77.5921C41.598 87.9241 11.268 94.4911 9.54903 115.408C9.51003 115.882 9.48803 116.349 9.46503 116.816C7.09703 115.774 5.01203 116.23 3.74903 117.806C2.23003 119.7 2.31503 122.676 4.88003 125.169C4.58203 125.298 4.28103 125.435 3.97703 125.592C-1.43197 128.374 -0.13397 132.832 1.04103 135.116C2.21503 137.4 5.08803 141.049 10.496 138.267C11.126 137.943 11.699 137.599 12.225 137.241C13.948 141.387 16.846 145.605 21.871 150.365C32.76 160.68 69.15 160.107 69.15 154.022C69.15 153.658 69.078 153.315 68.95 152.989C71.782 152.242 73.522 151.175 73.522 149.845C73.522 146.928 69.166 145.265 64.631 144.321C65.57 143.456 66.473 142.515 67.339 141.506C77.175 152.091 84.899 152.047 87.489 151.858C90.28 151.655 87.017 147.098 82.618 142.146C82.068 141.527 81.698 139.561 81.476 136.824C82.848 134.709 83.983 131.898 84.624 128.588C85.349 124.845 83.846 121.689 81.52 118.699C81.805 113.604 82.277 108.836 82.865 105.744C83.016 105.101 83.162 104.465 83.302 103.836C83.304 103.83 83.306 103.822 83.307 103.816L83.306 103.817C85.486 94.0411 86.354 86.1311 86.436 84.4081C89.769 83.8221 94.483 82.0661 98.114 78.7001C102.638 77.6401 103.568 74.8701 103.757 72.5011C103.844 72.4571 103.932 72.4251 104.018 72.3621C106.068 70.8691 106.157 67.5201 103.303 67.2321Z" fill="#FFFFE1"/>
<circle cx="88" cy="62" r="3" fill="#222222"/>
<circle cx="89.5" cy="61.5" r="0.5" fill="white"/>
</svg>
