<svg width="91" height="204" viewBox="0 0 91 204" fill="none" xmlns="http://www.w3.org/2000/svg">
<path d="M75.2316 173.839C75.6736 170.942 75.4726 167.948 74.6466 165.137C74.3706 164.199 74.0976 162.966 73.1636 162.677C71.6916 162.223 70.7886 163.572 70.2106 165.087C66.8866 146.491 53.2106 122.488 51.8306 117.032C50.1656 110.451 53.1786 99.511 55.0016 91.186C56.0046 86.609 56.4476 79.399 53.3956 73.622C53.3956 73.622 71.4746 51.161 77.5626 43.381C79.8916 40.405 92.1796 18.545 89.8636 15.973C87.5486 13.4 70.3116 27.035 62.9056 35.226C52.7136 46.497 51.8576 58.835 50.1756 69.408C49.4326 68.721 48.6006 68.087 47.6686 67.519C48.3276 63.106 51.9516 38.794 53.1566 29.908C53.6646 26.164 53.2336 1.08996 49.9356 0.0389596C46.6386 -1.01204 38.6446 19.459 36.3876 30.269C33.3726 44.708 38.4556 55.571 42.3116 65.319C40.7876 64.934 39.1046 64.669 37.2416 64.548C17.6586 63.279 14.3286 80.722 12.2886 82.624C10.2486 84.527 7.35161 83.813 7.19361 87.46C7.03461 91.107 9.73061 91.821 10.9196 92.217C11.7126 95.151 17.5006 99.352 22.2546 99.223C23.7796 100.161 22.2546 107.433 22.2546 107.433C22.2546 107.433 16.9756 108.606 14.8646 113.063C12.7536 117.52 18.3836 115.174 18.3836 115.174C16.2726 118.458 15.0996 120.1 12.8516 128.117C11.1756 134.095 12.8386 138.809 4.97361 142.478C-2.89139 146.148 0.428613 151.891 2.46361 153.076C4.49861 154.261 6.31161 148.232 10.9626 146.571C12.8016 145.915 15.2896 145.657 17.6386 145.083C18.1406 150.907 19.2866 156.952 20.3916 160.517C12.9876 165.742 7.59361 175.091 13.6746 186.541C17.0656 192.928 27.4296 195.876 27.4296 195.876C27.4296 195.876 25.9226 197.743 22.6246 196.957C19.3276 196.171 2.73961 192.085 2.73961 199.331C2.73961 202.686 14.0186 201.265 27.4466 201.1C27.4356 201.243 27.4216 201.385 27.4216 201.538C27.4216 205.086 40.0346 203.291 54.4666 203.291C57.5546 203.291 66.9106 204.4 66.4356 200.111C65.9606 195.823 63.4166 191.695 63.4166 191.695C65.0306 190.628 66.6816 189.691 68.0956 186.714C71.7076 186.496 76.1406 180.38 77.4936 176.954C77.8546 176.039 78.0966 174.966 77.6256 174.103C77.1556 173.241 75.6926 172.97 75.2316 173.839ZM43.4306 199.315C42.9906 199.21 42.3796 199.043 41.6576 198.851C41.7436 198.566 41.7936 198.261 41.7536 197.906C41.6646 197.105 41.5036 196.311 41.3006 195.547C41.4576 195.567 41.6116 195.6 41.7706 195.611C43.0006 195.696 44.1956 195.584 45.3536 195.321C48.2356 196.93 50.7666 197.641 50.7666 197.641C50.7666 197.641 46.7276 200.101 43.4306 199.315Z" fill="#FFFFE1"/>
<circle cx="25" cy="79" r="3" fill="#222222"/>
<circle cx="23.5" cy="78.5" r="0.5" fill="white"/>
</svg>
