<svg width="147" height="126" viewBox="0 0 147 126" fill="none" xmlns="http://www.w3.org/2000/svg">
<path d="M144.808 74.2041C144.625 74.1561 144.465 74.1291 144.3 74.0981C143.64 73.1741 142.769 72.1821 141.602 71.0371C137.679 67.1861 129.044 53.9861 120.55 53.9861C119.425 53.9861 118.373 54.0001 117.381 54.0271C119.828 44.4161 123.683 34.1861 115.039 23.4591C104.366 10.2151 91.2461 -1.6189 88.1591 0.182104C85.0721 1.9831 97.6991 23.7871 98.4991 26.2461C98.7991 27.1681 99.18 28.2381 99.619 29.4111C99.105 28.7911 98.5801 28.1691 98.0091 27.5381C90.6031 19.3471 73.3661 5.7121 71.0511 8.2851C68.7361 10.8581 81.0241 32.7181 83.3521 35.6931C87.4411 40.9181 97.2131 51.3391 103.194 57.6241C100.834 59.6751 99.3321 62.7311 96.9871 67.1301C91.9561 61.8111 77.38 51.8631 58.641 51.8631C47.039 51.8631 23.7741 58.2611 15.5971 76.0131C14.3431 75.1011 12.8661 74.4791 11.3411 74.1681C10.1311 73.9211 8.81206 73.8681 7.72006 74.4441C6.02506 75.3381 5.38606 77.4351 5.18506 79.3411C5.02406 80.8681 5.05305 82.4131 5.24505 83.9361C4.85605 83.8061 4.45706 83.7121 4.04306 83.7191C2.66106 83.7411 1.40505 84.6861 0.740049 85.8981C0.0750486 87.1101 -0.0709417 88.5461 0.0280583 89.9251C0.209058 92.4531 1.22505 94.8921 2.81405 96.8631C2.41805 96.9801 2.04106 97.1501 1.69806 97.4061C0.211056 98.5101 -0.0549512 100.669 0.337049 102.479C1.13705 106.174 4.13806 109.165 7.66406 110.53C11.1901 111.895 15.1581 111.785 18.8201 110.843C19.0811 110.776 19.3381 110.686 19.5971 110.609C24.6871 116.302 30.8291 118.265 31.6521 119.09L31.6531 119.091C31.3251 119.995 31.0601 120.941 30.9221 121.897C30.2461 126.571 43.5471 125.363 47.9371 125.363C68.4521 125.363 86.3831 127.319 86.3831 123.452C86.3831 120.915 83.9431 119.656 80.4831 119.14C81.0381 119.006 81.5931 118.869 82.1481 118.73C83.8721 121.629 92.397 120.704 95.468 120.704C111.874 120.704 126.213 122.66 126.213 118.793C126.213 110.895 107.356 115.349 103.607 116.206C99.8581 117.063 98.1451 115.028 98.1451 115.028C98.1451 115.028 105.32 113.921 109.976 105.184C113.743 106.897 117.604 100.88 117.604 100.88C117.604 100.88 118.11 104.59 120.977 102.735C123.844 100.88 127.796 93.7661 126.803 89.8371C130.092 89.2921 133.837 90.2201 137.419 87.0851C143.239 84.4321 144.873 81.5731 145.4 79.9711C145.673 79.1421 145.777 78.3731 145.729 77.6151C146.426 76.4511 146.404 74.6201 144.808 74.2041Z" fill="#FFFFE1"/>
<circle cx="125" cy="70" r="3" fill="#222222"/>
<circle cx="125.5" cy="68.5" r="0.5" fill="white"/>
</svg>
